<?xml version="1.0" encoding="UTF-8"?>
<svg id="Calque_2" data-name="Calque 2" xmlns="http://www.w3.org/2000/svg" viewBox="0 0 367.69 429.62">
  <defs>
    <style>
      .cls-1 {
        letter-spacing: -.01em;
      }

      .cls-2 {
        letter-spacing: 0em;
      }

      .cls-3 {
        letter-spacing: .03em;
      }

      .cls-4 {
        stroke-width: 0px;
      }

      .cls-4, .cls-5 {
        fill: #1f3552;
      }

      .cls-6 {
        letter-spacing: -.03em;
      }

      .cls-7 {
        letter-spacing: -.05em;
      }

      .cls-8 {
        letter-spacing: 0em;
      }

      .cls-9 {
        letter-spacing: -.01em;
      }

      .cls-5 {
        font-family: Beyline-Regular, Beyline;
        font-size: 45.97px;
      }

      .cls-10 {
        letter-spacing: -.03em;
      }

      .cls-11 {
        letter-spacing: .03em;
      }
    </style>
  </defs>
  <g>
    <g>
      <path class="cls-4" d="M257.51,112.95l-.2,76.3-38.15-.05.26-161.88s-65.47-7.86-100.02,7.63c0,0-43.73,15.66-71.74,43.53C47.65,78.48-.76,126.42,0,188.93c.77,62.51,32.8,106.47,88.02,139.46l.05-32.8s-66.49-41.05-59.66-116.33c6.83-75.28,68.74-106.18,68.74-106.18,0,0,32.77-23.01,86.92-22.51l-.38,237.85s17.38-.31,35.3-6.28l.1-61.55,38.23.05-.07,41.4s36.52-26.22,38.34-72.73c1.82-46.51-38.1-76.35-38.1-76.35ZM191.97,81.73l6.87,8.28.9,2.91-6.75,6.97-1.38.34.36-18.49ZM191.76,124.72l2.92,1.6,4.61,6.63.63,2.05-6.74,7.43-1.63.4.21-18.11ZM191.62,209.01l2.25,1.19,5.09,7.32.56,1.83-6.73,7.89-1.38.34.2-18.57ZM191.52,185.54l.5-19.34,6.15,6.83,1.33,2.57-.44,2.07-6.04,7.49-1.5.37ZM207.68,282.87l-8.37-.04,4.08-6.43,3.46-3.62.96.92-.13,9.18ZM194.46,195.94l-.43,2.53,10.51,15.26,2.87,2.77.29,2.25-7.78,11.04-6.1,9.94.93,2.55,5.64,8.36,7.26,9.1.04,2.31-14.07,20.79s-13.99,2.83-1.81-2.8l13.29-18.98-6.56-8.58-5.2-8.11-1.86-3.83.12-2.23,13.3-20.25-10.98-15.03-2.21-4.56-.07-2.41.66-1.78,12.61-18.12-10.57-15.02-2.1-3.75-.7-2.28.46-2.43,13.41-19.01-12.71-17.61-.84-2.69.03-2.55,13.33-19.69-10.52-14.45-2.79-5.1-.17-2.74.67-1.32,12.94-18.78s-15.61-17.77-13.33-20.48l2.01-.03,6.55,10.2,7.03,8.36.69,2.26-14.24,21.64,13.64,18.78.35,2-13.82,20.73-.1,1.87,10.15,14.54,3.1,3.06.67,2.16-14.11,20.68.59,2.32,8.82,12.87,4.52,5.03.21,1.57-13.62,19.64ZM207.53,205.95l-1.25.31-5.92-6.08-.46-1.51-.1-2.52,7.38-8.86.37,18.66ZM207.58,248.06l-1.5.37-6.54-7.2.12-2.23.88-1.95,6.24-7.31.8,18.32ZM191.66,251.94l1.13-.28,7.14,9.6-.56,2.57-7.25,7.09-.47-1.51v-17.48ZM191.7,39.79l1.38-.34,3.73,4.65,3.36,5.66-5.79,7.66-2.57.63-.11-18.26ZM207.76,79.39l-1.83-.48-6.19-7.4.13-1.77,1.34-2.64,4.35-5.57,1.83-1.49.38,19.35ZM207.67,102.9l-.08,18.54-1.29-.26-5.57-5.82-.7-2.26,1.19-3.99,6.44-6.2ZM209.13,163.63l-5.92-6.08-.46-1.51-.1-2.52,7.38-8.86.37,18.66-1.25.31Z"/>
      <path class="cls-4" d="M151.29,323.81l.38-235.1s-16.56,1.48-32.38,10.73c-15.82,9.25-27.75,15.75-40.07,32.05-12.33,16.3-18.47,36.92-19.63,57.51-1.16,20.59,11.44,43.77,28.56,64.38l.05-32.97,30.89.04-.2,121.45,32.35,8.04s40.85-23.82.04-26.14ZM119.15,189.08l-30.89-.04c-1.81-36.07,30.98-56.43,30.98-56.43l-.09,56.47ZM125.48,204.67l6.37,8.27-.12,2.42-.43,1.46-5.28,6.02-1.1-.25.56-17.91ZM125.79,337.16v-8.8s.85-.92.85-.92l3,3.37,3.5,6.04-7.35.3ZM138.14,336.69l-12.1-19.5.06-2.21,6.49-8.96,5.07-8.19.84-2.48-5.23-9.34-6.7-10.35.28-2.16,2.56-2.75,9.42-14.97-.35-2.42-11.72-18.41.21-1.51,4.03-4.97,7.91-12.61.54-2.24-12.13-19.4.61-2.09,2.76-3.03,9.1-14.26-.06-1.8-11.88-19.45.33-1.93,12.22-18.44-12.24-20.32.64-2.19,6.28-8.23,5.88-9.98,1.77-.04s3.01,1.03-11.97,20.06l11.7,18.85-.18,2.63-2.51,4.99-6.9,10.76-2.53,3.42,11.47,18.47v2.45s-.78,2.61-.78,2.61l-3.71,6.27-7.68,11.03,11.81,18.88.1,1.25-.65,2.21-1.89,3.67-9.47,14.73,10.85,16.99.56,1.69-.09,2.32-2,4.44-9.83,14.76,3.77,6.33,3.99,6.38,3.06,5.16.6,1.14.08,2.13-1.68,3.73-10.54,16.38,11.43,17.79s10.73,4.73-1.62,2.74ZM126.31,303.76l.94-17.6,5.39,6.81.75,1.84.08,2.13-5.83,7.11-1.32-.3ZM126.89,263.37l.56-17.91,6.37,8.27-.12,2.42-.43,1.46-5.28,6.02-1.1-.25ZM127.89,182.32l.17-17.78,5.58,5.75,1,3.79-.64,2.19-4.97,5.75-1.14.29ZM128.28,141.99l.58-18.57,1.59,1.37,3.75,5.21,1.15,2.49.09,1.69-5.53,7.29-1.62.52ZM142.89,103.5l-.33,17.52-2.25-.52-4.99-7.17,3.03-5.53,3.33-4.57,1.21.28ZM142.2,161.47l-1.21-.28-5.84-6.47.82-2.82,6.14-8.15.08,17.72ZM141.76,184.97l-.05,17.36-1.43-.33-5.83-6.92.58-1.98,4.13-6.5,2.59-1.63ZM141.21,243.3l-1.32-.3-5.22-7-.36-1.98,1.2-2.51,5.49-6.75.2,18.53ZM140.82,265.81l-.06,17.8-1.21-.28-5.81-7.36.52-1.77,4.56-7.18,1.99-1.21ZM140.25,306.99l-.22,16.76-.43,1.46-6.28-6.58-.46-2.44,6.4-9.43.99.23Z"/>
    </g>
    <text class="cls-5" transform="translate(38.1 419.03)"><tspan class="cls-11" x="0" y="0">A</tspan><tspan class="cls-9" x="27.57" y="0">L</tspan><tspan class="cls-3" x="49.61" y="0">I</tspan><tspan class="cls-6" x="61.33" y="0">A</tspan><tspan class="cls-1" x="85.95" y="0">G</tspan><tspan class="cls-10" x="118.21" y="0">U</tspan><tspan class="cls-8" x="145.77" y="0">I </tspan><tspan class="cls-2" x="167.66" y="0">H</tspan><tspan class="cls-7" x="196.33" y="0">O</tspan><tspan class="cls-11" x="229.84" y="0">M</tspan><tspan x="273.5" y="0">E</tspan></text>
  </g>
  <path class="cls-4" d="M151.25,349.94s71.75,13.89,137.52-25.96,86.95-102.61,76.03-166.54c-10.92-63.93-73.31-108.44-107.17-119.69l-.05,30.6s48.86,19.87,70.63,77.49c0,0,27.6,93.99-43.62,142.81,0,0-36.22,35.27-100.94,35.19l-32.36-.04-.04,26.14Z"/>
</svg>
