<?xml version="1.0" encoding="UTF-8"?>
<svg id="Calque_1" data-name="Calque 1" xmlns="http://www.w3.org/2000/svg" viewBox="0 0 330.48 360.98">
  <defs>
    <style>
      .cls-1, .cls-2 {
        fill: #000;
      }

      .cls-1, .cls-3, .cls-4 {
        stroke-width: 0px;
      }

      .cls-5 {
        letter-spacing: .03em;
      }

      .cls-6 {
        letter-spacing: -.01em;
      }

      .cls-2 {
        font-family: Beyline-Regular, Beyline;
        font-size: 39.63px;
      }

      .cls-3 {
        fill: none;
      }

      .cls-7 {
        letter-spacing: -.03em;
      }

      .cls-8 {
        letter-spacing: -.01em;
      }

      .cls-9 {
        letter-spacing: -.05em;
      }

      .cls-10 {
        letter-spacing: -.03em;
      }

      .cls-11 {
        letter-spacing: 0em;
      }

      .cls-4 {
        fill: #040202;
      }

      .cls-12 {
        letter-spacing: .03em;
      }

      .cls-13 {
        letter-spacing: .03em;
      }
    </style>
  </defs>
  <path class="cls-3" d="M117.73,91.43c.88-.57,1.78-1.11,2.69-1.64-.96.56-1.86,1.11-2.69,1.64Z"/>
  <path class="cls-3" d="M144.23,21.58c-.1,0-.3,0-.3,0-8.08-.01-19.46-.03-27.54-.03h0c9.28.01,18.56.02,27.84.04Z"/>
  <path class="cls-3" d="M122.48,88.64c.31-.17.6-.34.91-.5-.32.17-.6.33-.91.5Z"/>
  <path class="cls-3" d="M116.28,92.34c-9.36,6.3-16.77,14.49-21.4,23.86-3.41,6.91-5.29,14.47-5.31,22.4v2.39s.07,0,.07,0l26.56.03.04-24.8.04-23.89Z"/>
  <rect class="cls-4" x="109.71" y="14.85" width="13.39" transform="translate(101.37 131.22) rotate(-89.91)"/>
  <path class="cls-4" d="M302.57,168.42h25.51c-8.5-.03-17-.06-25.51-.1v.1Z"/>
  <path class="cls-4" d="M301.76,116.34c8.75-.86,17.49-1.72,26.24-2.58-8.75.86-17.49,1.72-26.24,2.58Z"/>
  <path class="cls-4" d="M302.54,183.88c0-5.96.02-12.6.02-14.88-.01,9.07-.03,18.15-.04,27.22,0-3.45.02-11.92.02-12.34Z"/>
  <path class="cls-4" d="M302.57,168.42v-.1c0-.09,0-.14,0-.14-3.1.17-4.52.24-4.52.24h0c1.5,0,3.01,0,4.51,0Z"/>
  <path class="cls-4" d="M143.93,21.58s0-.04,0-.06c-.36,0-.69,0-1.06,0-.06.02-.12.05-.18.07,2.75,0,5.47,0,7.69.01,5.4,0,10.48.02,14.39.03-1.87,0-3.95-.01-6.24-.02-4.86,0-9.73-.01-14.59-.02Z"/>
  <path class="cls-4" d="M167.98,21.62c1.33,0,4.21,0,4.21,0s-2.93,0-7.42-.02c1.14,0,2.23,0,3.22,0Z"/>
  <path class="cls-4" d="M117.73,91.43h-1.45s0,.91,0,.91c.47-.31.96-.62,1.45-.91Z"/>
  <path class="cls-4" d="M123.39,88.14c.36-.18.72-.37,1.08-.55-.36.18-.72.37-1.08.55Z"/>
  <path class="cls-4" d="M120.42,89.79c.65-.38,1.35-.76,2.06-1.14-.69.38-1.38.75-2.06,1.14Z"/>
  <g>
    <path class="cls-1" d="M116.33,63.75v4c-.02,7.89-.03,15.79-.04,23.68h1.45c-.49.29-.98.6-1.45.92l-.04,23.89-.04,24.8-.04,27.05-.03,16.87-.02,12.45-.03,17.89-.02,11.41-.03,20.28-.02,10.16-.03,15.64c8.92,3.03,18.26,5.38,27.89,6.93l.04-22.53v-2.27s.05-28.18.05-28.18v-2.14s.05-27.16.05-27.16v-.79s.05-28.53.05-28.53l.04-27.05.04-24.8.04-24.8.02-10.75.02-12.93.02-13.29c-9.93,1.9-19.31,5.06-27.91,9.25ZM124.57,84.42l1.37,1.18,3.23,4.49.99,2.15.08,1.46-4.77,6.29-1.39.45.5-16.01ZM123.89,119.87l4.81,4.95.86,3.27-.55,1.89-4.28,4.96-.98.25.14-15.33ZM121.66,154.47l5.49,7.13-.11,2.09-.37,1.26-4.55,5.19-.95-.22.48-15.44ZM123.36,189.64l5.49,7.13-.11,2.09-.37,1.26-4.55,5.19-.95-.22.48-15.44ZM123.18,224.73s4.62,5.96,4.64,5.87.65,1.59.65,1.59l.07,1.84-5.03,6.13-1.14-.26.81-15.17ZM121.93,268.69v-7.58s.73-.79.73-.79l2.59,2.9,3.02,5.21-6.34.26ZM134.2,257.14l-.37,1.26-5.41-5.67-.39-2.11,5.51-8.13.85.2-.19,14.45ZM134.84,222.53l-1.04-.24-5.01-6.34.45-1.53,3.94-6.19,1.72-1.04-.05,15.35ZM134.08,187.51l-4.5-6.03-.31-1.7,1.04-2.16,4.73-5.82.17,15.97-1.14-.26ZM135.66,152.45l-1.23-.28-5.02-5.96.5-1.71,3.56-5.61,2.23-1.4-.04,14.97ZM136.08,117.22l-1.04-.24-5.03-5.58.71-2.43,5.29-7.03.07,15.28ZM136.17,93.54l-2.17,4.3-5.95,9.28-2.18,2.95,9.26,14.62.63,1.3v2.11s-.67,2.25-.67,2.25l-3.2,5.4-6.62,9.51,9.95,15.36.24.92.09,1.08-.56,1.9-1.63,3.16-8.17,12.7,9.35,14.64.48,1.46-.08,2-1.73,3.82-8.48,12.73.95,1.95,2.31,3.51,3.44,5.5,2.64,4.45.52.98.07,1.84-1.45,3.22-4.03,6.84-5.06,7.28,3.69,6.04,6.17,9.3c5.6,2.2,4.67,3.78-1.4,2.36l-.91-1.36-9.52-15.45.05-1.91,5.6-7.73,4.37-7.06.73-2.14-4.51-8.05-5.77-8.92.24-1.86,2.21-2.37,8.12-12.9-.3-2.09-10.1-15.87.18-1.3,3.48-4.28,6.82-10.88.46-1.93-10.46-16.72.53-1.8,2.38-2.62,7.84-12.3-.05-1.55-1.63-3.06-8.62-13.71.28-1.66,10.54-15.9-10.55-17.51.55-1.89,5.41-7.1,5.07-8.61c.75-.25,1.25-.26,1.52-.03,1.19,1.03-2.25,6.79-10.32,17.29l9.6,15.18.49,1.07-.16,2.27ZM136.39,82.35l-1.94-.45-4.3-6.18,2.61-4.77,2.87-3.94,1.04.24-.28,15.1Z"/>
    <g>
      <path class="cls-1" d="M143.91,257.19l-.04,22.53c9.04,1.47,18.36,2.25,27.89,2.31l.04-24.8-27.9-.04Z"/>
      <path class="cls-1" d="M89.61,116.2l-.04,22.41c.01-7.93,1.9-15.49,5.31-22.4h-5.27Z"/>
      <path class="cls-1" d="M116.28,92.34v-.92s-26.63-.03-26.63-.03l-.04,24.8h5.27c4.63-9.36,12.04-17.55,21.4-23.85Z"/>
      <path class="cls-1" d="M116.33,63.75c-2.55,1.25-5.02,2.58-7.43,3.99h7.43s0-3.99,0-3.99Z"/>
      <path class="cls-1" d="M89.66,82.48c-2.84,2.81-5.49,5.78-7.89,8.9h7.87s.01-8.9.01-8.9Z"/>
      <path class="cls-1" d="M235.34,168.24l.04-27.05h-.07c-.46,9.81-3.83,19.01-9.37,27.04h9.39Z"/>
      <path class="cls-1" d="M235.28,203.93c2.56-2.02,5.02-4.14,7.34-6.36h-7.33s-.01,6.36-.01,6.36Z"/>
      <g>
        <path class="cls-1" d="M268.24,218.55c-2.96,2.93-6.12,5.72-9.41,8.34h9.39s.01-8.34.01-8.34Z"/>
        <path class="cls-1" d="M235.17,270.67c9.61-3.65,18.73-8.12,27.26-13.33l-27.24-.03-.02,13.37Z"/>
        <g>
          <path class="cls-1" d="M202.24,253.72c-9.77,2.17-19.96,3.37-30.43,3.48v.02s30.43.04,30.43.04v-3.54Z"/>
          <path class="cls-1" d="M309.26,68c-2.03-3.06-4.21-6.02-6.52-8.92v8.91s6.52,0,6.52,0Z"/>
          <path class="cls-1" d="M235.2,257.3l.02-15.26c-10.22,5.13-21.28,9.09-32.98,11.68v3.54s32.95.04,32.95.04Z"/>
          <path class="cls-1" d="M268.18,253.68c11.47-7.65,21.72-16.65,30.47-26.74h0s-30.43-.04-30.43-.04l-.04,26.78Z"/>
          <path class="cls-1" d="M302.48,222.34c6.15-7.7,11.46-15.96,15.78-24.68h0l-15.74-.02-.04,24.7Z"/>
          <path class="cls-1" d="M268.24,218.55h0s0,0,0,0v8.35s30.41.04,30.41.04l3.83-4.6.04-24.7-17.19-.02c-4.81,7.53-10.56,14.54-17.09,20.93Z"/>
          <rect class="cls-1" x="264.06" y="222.72" width="8.35" height="0" transform="translate(45.08 490.6) rotate(-89.91)"/>
          <path class="cls-1" d="M302.56,169c0,2.28-.01,8.92-.02,14.88,0,.42-.01,8.9-.02,12.34v1.42h0l15.74.02c2.01-3.87,4.03-8.37,5.79-13.47,2-5.78,3.24-11.11,4.02-15.75h-25.51c0,.18,0,.37,0,.56Z"/>
          <path class="cls-1" d="M301.09,142.05c-.34,4.17-.69,7.52-.92,9.65-.9,8.28-2.12,16.72-2.12,16.72h0s1.42-.08,4.52-.24c0,0,0,.06,0,.14,8.5.04,17,.08,25.51.11.4-2.27.76-4.61,1.07-7.01.93-7.12,1.32-13.85,1.34-20.12-9.8.25-19.6.5-29.39.75Z"/>
          <path class="cls-1" d="M330.21,134.56c-.41-7.32-1.19-14.27-2.22-20.81-8.7-.31-17.4-.62-26.1-.93-.27,9.74-.53,19.48-.8,29.22,9.8-.25,19.6-.5,29.39-.75-.05-2.21-.14-4.46-.27-6.74Z"/>
          <path class="cls-1" d="M291.26,91.65h0c1.87,3.64,3.65,7.68,5.18,12.11,5.15,14.87,5.51,28.32,4.65,38.29.53-16.79,1.07-33.59,1.6-50.39h-11.43Z"/>
          <path class="cls-1" d="M327.99,113.76c-.45-4.28-1.35-9.24-3.09-14.62-.87-2.7-1.85-5.18-2.86-7.45l-19.35-.02c-.31,8.22-.62,16.45-.93,24.67h0s25.94-2.55,26.24-2.58Z"/>
          <path class="cls-1" d="M302.69,91.66l19.35.02h0c-3.45-8.29-7.73-16.21-12.77-23.69h-6.54s-.04,23.67-.04,23.67Z"/>
          <path class="cls-1" d="M302.69,91.66l.04-23.68-27.29-.03c6.29,7.28,11.62,15.22,15.82,23.7h11.43Z"/>
          <path class="cls-1" d="M302.74,59.07c-3.62-4.59-7.55-8.94-11.74-13.09l-22.49-.03-.02,14.56c2.43,2.4,4.77,4.88,6.94,7.44l27.29.03v-8.91Z"/>
          <path class="cls-1" d="M291,45.98c-6.81-6.73-14.34-12.89-22.46-18.33l-.03,18.3,22.49.03Z"/>
          <path class="cls-1" d="M250.71,45.93c6.41,4.36,12.38,9.24,17.78,14.58l.02-14.56-17.8-.02Z"/>
          <path class="cls-1" d="M235.59,10.57l-.02,11.12,23.45.03c-7.42-4.28-15.24-8.02-23.43-11.15Z"/>
          <path class="cls-1" d="M268.55,27.65c-3.09-2.09-6.27-4.07-9.52-5.93l-23.45-.03-.02,15.26c5.29,2.69,10.37,5.68,15.16,8.97l17.8.02.03-18.3Z"/>
          <path class="cls-1" d="M268.23,226.9h-9.39c-7.2,5.79-15.1,10.86-23.61,15.14l-.02,15.26,27.24.03c1.95-1.16,3.87-2.39,5.75-3.66l.04-26.78h0Z"/>
          <path class="cls-1" d="M202.24,257.26l-.04,22.32c11.48-1.92,22.52-4.93,32.97-8.91l.02-13.37-32.96-.04Z"/>
          <path class="cls-1" d="M171.81,257.22l-.04,24.8h.63c10.19.01,20.15-.83,29.8-2.44l.04-22.32-30.43-.04Z"/>
          <path class="cls-1" d="M302.56,169v-.58c-1.5,0-3.01,0-4.51,0h0c-.67,4.31-2.01,9.87-4.78,16.01-2.46,5.46-5.37,9.86-7.94,13.19l17.19.02v-1.42c.02-9.07.03-18.15.05-27.22Z"/>
        </g>
      </g>
      <path class="cls-1" d="M235.29,197.56h7.33c8.77-8.43,15.68-18.36,20.12-29.29l-27.41-.03-.05,29.32Z"/>
      <path class="cls-1" d="M268.37,139.71c.01-8.06-1.26-15.87-3.64-23.29l-29.3-.04-.04,22.41v2.39s32.95.04,32.95.04c.02-.5.03-1.02.03-1.52Z"/>
      <path class="cls-1" d="M235.49,75.4l-.03,16.18,16.12.02c-4.58-5.94-9.98-11.38-16.09-16.2Z"/>
      <path class="cls-1" d="M251.58,91.6l-16.12-.02-.04,24.8,29.3.04c-2.84-8.94-7.33-17.29-13.15-24.82Z"/>
      <path class="cls-1" d="M262.74,168.27c3.43-8.49,5.39-17.57,5.6-27.04l-32.96-.04-.04,27.05,27.41.03Z"/>
      <path class="cls-1" d="M89.57,141l-.04,27.05h9.39c-5.52-8.03-8.85-17.24-9.28-27.05h-.07Z"/>
      <path class="cls-1" d="M89.64,141c.43,9.81,3.76,19.02,9.28,27.06l17.24.02.04-27.05-26.56-.03Z"/>
      <path class="cls-1" d="M116.28,91.43c.01-7.89.03-15.79.04-23.68h-7.43c-7.1,4.19-13.58,9.16-19.23,14.73v8.91s26.62.03,26.62.03Z"/>
      <path class="cls-1" d="M89.65,91.39h-7.87c-5.84,7.5-10.36,15.85-13.23,24.78l21.06.03.04-24.8Z"/>
      <path class="cls-1" d="M89.57,138.6l.04-22.41-21.06-.03c-2.4,7.41-3.7,15.22-3.72,23.28,0,.5,0,1.02.02,1.52l24.71.03v-2.39Z"/>
      <path class="cls-1" d="M64.86,140.97c.17,9.48,2.1,18.56,5.51,27.06l19.16.02.04-27.05-24.71-.03Z"/>
      <path class="cls-1" d="M89.48,196.48l.05-28.43-19.16-.02c4.25,10.54,10.79,20.17,19.11,28.45Z"/>
      <path class="cls-1" d="M202.42,141.14l.04-24.8.04-24.8v-2.89s.04-20.78.04-20.78l.02-9.87.02-12.12.03-20.68v-3.19s0-.35,0-.35c0-2.14.02-12.84.03-20.07l-30.43-1.39c-2.32-.18-17.83-.61-27.9,1.11-.13,6.76,23.31,20.31,27.87,20.32l-.04,24.22v6.66s-.04,15.33-.04,15.33l-.02,11.52-.02,12.16-.04,24.8-.04,24.8-.04,27.05-.05,29.32c-.02,9.73-.03,19.46-.05,29.2,10.66-.49,20.9-2.35,30.44-5.42l.04-23.74v-8.64s.05-20.68.05-20.68l23.56.03c5.54-8.03,8.91-17.23,9.37-27.04l-32.89-.04ZM192.4,155.57l-1.08.26-5.1-5.24-.4-1.3-.09-2.17,6.36-7.64.32,16.09ZM194.86,118.83l-1.08.26-5.1-5.24-.4-1.3-.09-2.17,6.36-7.64.32,16.09ZM192.46,82.72l-1.12-.23-4.8-5.02-.6-1.95,1.03-3.44,5.56-5.35-.07,15.98ZM192.6,46.46l-1.58-.41-5.34-6.38.11-1.52,1.16-2.28,3.75-4.81,1.58-1.28.33,16.68ZM178.75,12.32l1.19-.29,3.21,4.01,2.9,4.88-4.99,6.61-2.22.54-.09-15.74ZM178.99,48.48l5.92,7.14.77,2.51-5.82,6.01-1.19.29.31-15.94ZM178.81,85.55l2.52,1.38,3.97,5.72.54,1.76-5.81,6.41-1.4.34.18-15.61ZM179.04,121.31l5.3,5.89,1.15,2.21-.38,1.79-5.21,6.46-1.3.32.43-16.67ZM178.69,158.22l1.94,1.02,4.39,6.31.49,1.58-5.8,6.8-1.19.29.17-16.01ZM178.72,195.23l.97-.24,6.16,8.28-.48,2.21-6.25,6.11-.4-1.3v-15.07ZM192.53,221.9l-7.22-.04,3.52-5.55,2.99-3.12.83.8-.12,7.91ZM191.15,192.2l-5.64-6.21.1-1.92s.73-1.77.76-1.68c.03.09,5.38-6.3,5.38-6.3l.69,15.8-1.3.32ZM185.84,176.13l-5.26,8.57.8,2.2,4.87,7.2,6.26,7.85.03,1.99-11.07,16.47-1.06,1.46c-6.93,1.7-7.97.09-1.56-2.41l7.16-9.93,4.29-6.43-5.65-7.4-4.48-6.99-1.6-3.3.1-1.92.61-1.05,3.07-4.74,4-5.87,2.68-3.75,1.11-2.07-9.46-12.96-1.91-3.92-.06-2.08.57-1.54,10.87-15.62-9.11-12.95-1.81-3.24-.61-1.96.12-1.13.28-.97,11.56-16.39-7.4-9.67-3.56-5.52-.72-2.32.02-2.2.74-1.38,10.76-15.6-2.44-3-6.64-9.46-2.4-4.4-.15-2.36.58-1.14,11.16-16.19c-9.03-10.65-12.86-16.54-11.49-17.65.31-.25.89-.26,1.74-.02l5.64,8.79,6.06,7.2.6,1.95-12.28,18.66,11.76,16.19.3,1.72-10.02,14.62-1.9,3.26-.08,1.62,8.75,12.53,2.67,2.64.57,1.86-12.16,17.83.5,2,7.61,11.09,3.9,4.34.18,1.35-11.74,16.93-.37,2.19,9.06,13.16,2.48,2.39.25,1.94-6.71,9.52Z"/>
      <g>
        <path class="cls-1" d="M89.38,261.14v-4.02s-6.93,0-6.93,0c2.27,1.4,4.56,2.73,6.93,4.03Z"/>
        <path class="cls-1" d="M65,36.34c-3.66,2.95-7.13,6.07-10.44,9.34h10.42s.02-9.34.02-9.34Z"/>
        <path class="cls-1" d="M41.51,167.99c-2.45-8.69-3.79-17.73-3.92-27.06h-.02s-.04,27.05-.04,27.05h3.98Z"/>
        <path class="cls-1" d="M26.82,197.29c3.06,6.23,6.61,12.23,10.63,17.94l.03-17.93h-10.66Z"/>
        <path class="cls-1" d="M37.48,197.31l17.19.02c-5.79-9.11-10.25-18.94-13.16-29.34h-3.98s-.05,29.32-.05,29.32Z"/>
        <path class="cls-1" d="M81.07,226.66c-5.99-4.8-11.46-10.11-16.35-15.83l-.03,15.81,16.37.02Z"/>
        <path class="cls-1" d="M116.39,21.54l.02-13.39c-4.29,1.43-8.88,3.16-13.68,5.25-6.07,2.64-11.43,5.41-16.11,8.1h3.14s26.63.04,26.63.04Z"/>
        <path class="cls-1" d="M64.95,67.69l.04-21.99h-10.42c-6.24,6.12-11.9,12.76-16.87,19.81v2.14s27.26.03,27.26.03Z"/>
        <path class="cls-1" d="M64.95,67.69h.02c7.11-8.26,15.44-15.64,24.75-21.92v-.04s-24.74-.03-24.74-.03l-.04,21.99Z"/>
        <path class="cls-1" d="M37.65,91.33h11.43c4.23-8.43,9.58-16.36,15.87-23.62v-.02s-27.27-.03-27.27-.03l-.04,23.68Z"/>
        <path class="cls-1" d="M37.61,116.13h2.55c1.93-8.64,4.95-16.94,8.92-24.79h-11.43s-.04,24.79-.04,24.79Z"/>
        <path class="cls-1" d="M37.68,67.65v-2.14c-2.61,3.71-5.31,7.91-7.91,12.6-2.59,4.67-4.69,9.11-6.39,13.2l14.27.02.04-23.68Z"/>
        <path class="cls-1" d="M37.65,91.33l-14.27-.02c-3.32,7.95-5.86,16.24-7.51,24.79l21.74.03.04-24.8Z"/>
        <path class="cls-1" d="M40.16,116.13h-2.55s-21.74-.03-21.74-.03c-1.56,7.87-2.37,15.97-2.38,24.24v.56s24.08.03,24.08.03c.03-2.07.13-4.94.42-8.37.23-2.67.48-4.68.81-7.22.31-2.36.75-5.5,1.36-9.21Z"/>
        <path class="cls-1" d="M37.57,140.93l-24.08-.03c.03,9.25,1.05,18.31,3,27.06l21.03.03.04-27.05Z"/>
        <path class="cls-1" d="M37.52,167.98l-21.03-.03c2.23,10.23,5.73,20.04,10.33,29.33h10.66s.05-29.31.05-29.31Z"/>
        <path class="cls-1" d="M64.72,210.83c-3.69-4.27-7.06-8.8-10.05-13.51l-17.19-.02-.03,17.93c2.76,3.94,5.7,7.73,8.88,11.38l18.36.02.03-15.81Z"/>
        <path class="cls-1" d="M46.33,226.62c5.52,6.4,11.65,12.38,18.34,17.85l.03-17.83-18.36-.02Z"/>
        <path class="cls-1" d="M64.69,226.64l-.03,17.83c5.57,4.59,11.51,8.82,17.78,12.64h6.93s.04-24.25.04-24.25c-2.88-1.94-5.66-4.01-8.35-6.2l-16.37-.02Z"/>
        <path class="cls-1" d="M116.39,21.54l-26.63-.03-.04,24.22h.05c3.79-2.54,8.06-5.15,12.8-7.7,5.41-2.9,10.56-5.23,15.28-7.12-.49-3.12-.98-6.25-1.46-9.37Z"/>
        <path class="cls-1" d="M89.72,45.73l.04-24.22h-3.14c-7.69,4.38-14.94,9.35-21.62,14.84l-.02,9.35,24.74.03Z"/>
        <path class="cls-1" d="M116.39,21.54c9.18,0,18.36.02,27.54.03,0,0,.3,0,.3,0,0,0-.1,0-.3,0,.13-6.76.26-13.52.39-20.28l-14.22,2.87c-4.66,1.15-9.23,2.48-13.69,3.98l-.02,13.39Z"/>
        <path class="cls-1" d="M172.19,21.61s-29.1-1.14-54.33,9.3l-1.46-9.37,55.8.07Z"/>
        <polygon class="cls-1" points="172.19 21.61 144.32 1.29 143.93 21.58 172.19 21.61"/>
      </g>
    </g>
  </g>
  <text class="cls-2" transform="translate(46.33 339.28)"><tspan class="cls-5" x="0" y="0">A</tspan><tspan class="cls-6" x="23.77" y="0">L</tspan><tspan class="cls-13" x="42.77" y="0">I</tspan><tspan class="cls-10" x="52.87" y="0">A</tspan><tspan class="cls-8" x="74.1" y="0">G</tspan><tspan class="cls-7" x="101.91" y="0">U</tspan><tspan x="125.68" y="0">I </tspan><tspan class="cls-11" x="144.55" y="0">H</tspan><tspan class="cls-9" x="169.26" y="0">O</tspan><tspan class="cls-12" x="198.15" y="0">M</tspan><tspan x="235.8" y="0">E</tspan></text>
</svg>